<svg xmlns="http://www.w3.org/2000/svg" width="512" height="512" viewBox="0 0 512 512" role="img" aria-label="Freedom Boat logo">
  <defs>
    <linearGradient id="bg" x1="0" y1="0" x2="0" y2="1">
      <stop offset="0" stop-color="#1271c6"/>
      <stop offset="1" stop-color="#0f5eb6"/>
    </linearGradient>
  </defs>

  <rect x="26" y="26" width="460" height="460" rx="78" ry="78" fill="url(#bg)"/>

  <g transform="translate(256 256) scale(0.85) translate(-256 -256)">
    <!-- upper wave -->
    <path
      d="M235 215
         C 255 175, 305 173, 345 194
         C 390 218, 426 233, 463 216
         C 446 245, 429 255, 402 253
         C 368 251, 330 230, 290 220
         C 268 214, 250 213, 235 215 Z"
      fill="#ffffff"
    />

    <!-- lower wave -->
    <path
      d="M63 293
         C 99 236, 170 222, 245 251
         C 307 275, 373 306, 445 293
         C 409 341, 372 363, 314 361
         C 252 359, 204 322, 149 314
         C 117 309, 89 307, 63 313 Z"
      fill="#ffffff"
    />
  </g>
</svg>
