<svg xmlns="http://www.w3.org/2000/svg" width="512" height="512" viewBox="0 0 512 512" role="img" aria-label="Freedom Boat Planner">
  <defs>
    <linearGradient id="bg" x1="0" y1="0" x2="1" y2="1">
      <stop offset="0" stop-color="#0ea5e9"/>
      <stop offset="1" stop-color="#1d4ed8"/>
    </linearGradient>
  </defs>

  <circle cx="256" cy="256" r="212" fill="url(#bg)"/>
  <circle cx="256" cy="256" r="212" fill="none" stroke="rgba(255,255,255,0.22)" stroke-width="10"/>

  <path d="M84 302C124 266 164 266 204 302C244 338 284 338 324 302C364 266 404 266 444 302"
        fill="none" stroke="rgba(255,255,255,0.95)" stroke-width="22" stroke-linecap="round"/>

  <path d="M98 344C132 318 166 318 200 344C234 370 268 370 302 344C336 318 370 318 404 344"
        fill="none" stroke="rgba(219,234,254,0.9)" stroke-width="12" stroke-linecap="round"/>

  <path d="M120 236C150 216 178 216 208 236" fill="none" stroke="rgba(255,255,255,0.55)" stroke-width="8" stroke-linecap="round"/>
</svg>
