<svg xmlns="http://www.w3.org/2000/svg" viewBox="0 0 128 128">
  <defs>
    <linearGradient id="sea" x1="0" y1="0" x2="0" y2="1">
      <stop offset="0" stop-color="#0ea5a4"/>
      <stop offset="1" stop-color="#0b2c3b"/>
    </linearGradient>
    <linearGradient id="sky" x1="0" y1="0" x2="1" y2="1">
      <stop offset="0" stop-color="#38bdf8" stop-opacity="0.95"/>
      <stop offset="1" stop-color="#0ea5a4" stop-opacity="0.75"/>
    </linearGradient>
  </defs>

  <!-- background -->
  <rect x="0" y="0" width="128" height="128" rx="28" fill="#061826"/>
  <path d="M0,60 C24,38 54,28 84,32 C106,35 118,42 128,50 L128,128 L0,128 Z" fill="url(#sea)"/>
  <circle cx="94" cy="30" r="10" fill="url(#sky)" opacity="0.9"/>

  <!-- waves -->
  <path d="M14 88c10 0 10-6 20-6s10 6 20 6 10-6 20-6 10 6 20 6" fill="none" stroke="rgba(255,255,255,0.35)" stroke-width="5" stroke-linecap="round"/>
  <path d="M18 102c8 0 8-5 16-5s8 5 16 5 8-5 16-5 8 5 16 5" fill="none" stroke="rgba(255,255,255,0.22)" stroke-width="4" stroke-linecap="round"/>

  <!-- boat -->
  <path d="M52 34v26" stroke="#e6f7ff" stroke-width="6" stroke-linecap="round"/>
  <path d="M55 34h20" stroke="#e6f7ff" stroke-width="6" stroke-linecap="round"/>
  <path d="M55 36 L55 62 L80 62 Z" fill="#e6f7ff" opacity="0.95"/>
  <path d="M38 70h52l-8 16H46z" fill="#e6f7ff" opacity="0.95"/>
  <path d="M34 70c10 10 50 10 60 0" fill="none" stroke="rgba(6,24,38,0.25)" stroke-width="5" stroke-linecap="round"/>
</svg>
